<?xml version="1.0" encoding="utf-8"?>
<!-- Generator: Adobe Illustrator 23.0.6, SVG Export Plug-In . SVG Version: 6.00 Build 0)  -->
<svg version="1.1" id="Layer_1" xmlns="http://www.w3.org/2000/svg" xmlns:xlink="http://www.w3.org/1999/xlink" x="0px" y="0px"
	 viewBox="0 0 440 240" style="enable-background:new 0 0 440 240;" xml:space="preserve">
<style type="text/css">
	.st0{fill:#ED1C24;stroke:#ED1C24;stroke-width:0.2001;stroke-miterlimit:3;}
	.st1{fill:#ED1C24;}
	.st2{fill:#FFFFFF;}
</style>
<rect x="-2.74" y="-0.81" class="st0" width="449.62" height="245.04"/>
<g>
	<path class="st1" d="M422.59,212.84c0,14.49-10.74,26.35-23.73,26.35H45.92c-13,0-23.67-11.86-23.67-26.35V25.55
		c0-14.52,10.67-26.36,23.67-26.36h352.95c12.98,0,23.73,11.84,23.73,26.36V212.84L422.59,212.84z"/>
	<path class="st0" d="M440,212.84c0,14.49-11.81,26.35-26.08,26.35H26.01C11.73,239.19,0,227.33,0,212.84V25.55
		C0,11.03,11.73-0.81,26.01-0.81h387.91c14.27,0,26.08,11.84,26.08,26.36V212.84L440,212.84z"/>
	<path class="st2" d="M199.52,172.91c0.49-5.32,2.84-15.95,13.88-15.49c8.83,0,12.43,8.71,12.94,15.49H199.52L199.52,172.91z
		 M238.54,176.78c0-15.48-9.39-31.5-25.11-31.5c-17.14,0-26.12,16.6-26.12,32.99c0,15.23,6.98,32.99,26.64,32.99
		c10.74,0,23.46-7.71,23.46-14.23c0-4.02-2.49-6.18-4.81-6.18c-1.69,0-3.1,1.23-4.74,2.65c-2.72,2.38-6.45,5.62-13.79,5.62
		c-8.27,0-13.89-6.07-14.54-15.25c2.98,0,32.45,0,32.45,0C236.46,183.88,238.54,181.62,238.54,176.78L238.54,176.78z M366.53,199.12
		c-9.98,0-13.51-11.22-13.51-20.84c0-9.63,3.53-20.86,13.51-20.86c9.98,0,13.53,11.23,13.53,20.86
		C380.05,187.9,376.51,199.12,366.53,199.12L366.53,199.12z M366.53,145.29c-16.82,0-25.62,16.6-25.62,32.99
		c0,16.39,8.8,32.99,25.62,32.99c16.81,0,25.6-16.6,25.6-32.99C392.13,161.88,383.34,145.29,366.53,145.29L366.53,145.29z
		 M271.08,157.42c3.19,0,4.88,0.89,6.49,1.78c1.32,0.71,2.68,1.44,4.54,1.44c3.11,0,5.21-3.08,5.21-5.95c0-5.62-6.52-9.4-16.23-9.4
		c-18.11,0-26.21,16.57-26.21,32.99c0,16.42,8.1,32.99,26.21,32.99c10.47,0,15.95-4.84,15.95-9.64c0-3.56-2.02-5.94-5.03-5.94
		c-1.53,0-2.71,0.69-3.94,1.42c-1.65,0.94-3.52,2.02-6.97,2.02c-11.14,0-14.11-13.1-14.11-20.84
		C256.97,170.53,259.94,157.42,271.08,157.42L271.08,157.42z M102.77,131.41c-0.93-2.69-2.61-7.58-7.84-7.58
		c-5.19,0-6.83,4.65-7.81,7.44c-0.03,0.08-8.67,25.93-15.44,46.2H58.7c-4.54,0-6.14,3.19-6.14,5.94c0,2.85,1.61,5.91,6.14,5.91h9.04
		c-2.39,7.13-4.01,11.97-4.01,11.97c-0.4,1.09-0.85,2.87-0.85,4.33c0,2.85,1.9,5.74,5.55,5.74c3.83,0,5.07-2.8,5.98-4.84l0.2-0.45
		l4.84-14.7c0,0,0.28-0.91,0.65-2.05h14.95c4.54,0,6.16-3.06,6.16-5.91c0-2.74-1.62-5.94-6.16-5.94H83.99
		c2.88-8.8,8.07-24.55,10.94-33.27c3.07,9.31,13.02,39.6,13.03,39.62c0,0.02,2.43,7.52,2.43,7.52c0,0.03,4.8,14.6,4.8,14.6
		c0.62,1.78,1.87,5.42,6.22,5.42c3.66,0,5.57-2.89,5.57-5.74c0-1.46-0.46-3.22-0.9-4.4C126.11,201.28,102.77,131.41,102.77,131.41
		L102.77,131.41z M319.12,157.42c3.19,0,4.87,0.89,6.5,1.78c1.31,0.71,2.67,1.44,4.52,1.44c3.12,0,5.21-3.08,5.21-5.95
		c0-5.62-6.53-9.4-16.23-9.4c-18.12,0-26.23,16.57-26.23,32.99c0,16.42,8.11,32.99,26.23,32.99c10.44,0,15.93-4.84,15.93-9.64
		c0-3.56-2.02-5.94-5.02-5.94c-1.54,0-2.7,0.69-3.95,1.42c-1.65,0.94-3.5,2.02-6.96,2.02c-11.16,0-14.13-13.1-14.13-20.84
		C304.98,170.53,307.96,157.42,319.12,157.42L319.12,157.42z M154.82,199.12c-9.98,0-13.52-11.22-13.52-20.84
		c0-9.63,3.54-20.86,13.52-20.86c9.98,0,13.51,11.23,13.51,20.86C168.33,187.9,164.79,199.12,154.82,199.12L154.82,199.12z
		 M173.45,118.38c-3.61,0-6.05,2.85-6.05,7.1c0,0,0,19.41,0,25.6c-3.08-3.16-7.65-5.8-13.31-5.8c-16.34,0-24.89,16.6-24.89,32.99
		c0,16.39,8.54,32.99,24.89,32.99c5.93,0,10.45-1.9,13.55-5.56c0.54,3.34,2.68,5.56,5.81,5.56c3.62,0,6.06-2.86,6.06-7.11v-78.68
		C179.51,121.23,177.07,118.38,173.45,118.38L173.45,118.38z"/>
</g>
</svg>
